<?xml version="1.0" encoding="UTF-8" standalone="no"?>
<!-- Created with Inkscape (http://www.inkscape.org/) -->

<svg
   version="1.1"
   id="svg1"
   width="144.80148"
   height="45.887009"
   viewBox="0 0 144.80148 45.887009"
   xmlns="http://www.w3.org/2000/svg"
   xmlns:svg="http://www.w3.org/2000/svg">
  <defs
     id="defs1" />
  <rect
     style="fill:#0000ff;stroke:#0000ff"
     id="rect1"
     width="10.99932"
     height="1.8332207"
     x="12.549469"
     y="4.0858331" />
  <rect
     style="fill:#0000ff;stroke:#0000ff"
     id="rect2"
     width="2.2915268"
     height="31.426634"
     x="21.252131"
     y="6.9094205" />
  <rect
     style="fill:#0000ff;stroke:#0000ff"
     id="rect3"
     width="2.2915268"
     height="31.426634"
     x="27.29591"
     y="6.8783288" />
  <rect
     style="fill:#0000ff;stroke:#0000ff"
     id="rect4"
     width="10.99932"
     height="1.8332207"
     x="27.299881"
     y="4.0550828" />
  <path
     d="m 3.1919462,23.563295 q 0,-1.327712 -0.8153199,-2.141471 -0.79134,-0.835175 -2.32605978,-0.835175 v -2.248544 q 1.53471978,0 2.32605978,-0.813759 0.8153199,-0.835174 0.8153199,-2.141471 0,-1.049321 -0.19184,-2.055812 -0.1678599,-1.027906 -0.40766,-2.034398 -0.2158199,-1.006491 -0.4076599,-2.0343978 -0.16786,-1.027906 -0.16786,-2.098642 0,-1.434785 0.4796,-2.634009 Q 2.9761262,3.3263923 3.9353262,2.4698038 4.918506,1.5918006 6.3333254,1.1206769 q 1.4388,-0.49253826 3.3572,-0.49253826 H 10.937485 V 2.2984862 q 0,0.4282941 -0.33572,0.6210266 -0.33572,0.1713177 -0.5995,0.1713177 H 9.5466454 q -1.7985,0 -2.829639,1.0493208 -1.00716,1.0279059 -1.00716,2.8053279 0,1.156394 0.16786,2.227129 0.167859,1.0707358 0.3597,2.0986418 0.19184,1.027907 0.359699,2.034398 0.167861,0.985077 0.167861,2.012983 0,0.77093 -0.26378,1.4562 -0.26378,0.663856 -0.719401,1.220638 -0.4556194,0.535368 -1.1030793,0.920833 -0.64746,0.36405 -1.3908399,0.556783 0.7433799,0.192732 1.3908399,0.578197 0.6474599,0.36405 1.1030793,0.920833 0.455621,0.535367 0.719401,1.199224 0.26378,0.663855 0.26378,1.434785 0,1.027906 -0.167861,2.034397 -0.167859,1.006492 -0.359699,2.034398 -0.191841,1.027906 -0.3597,2.098643 -0.16786,1.070735 -0.16786,2.227129 0,1.756006 1.00716,2.783912 1.031139,1.049321 2.829639,1.049321 h 0.4556196 q 0.26378,0 0.5995,0.171318 0.33572,0.192733 0.33572,0.621027 v 1.670347 H 9.6905254 q -1.9184,0 -3.3572,-0.492538 -1.4148194,-0.471124 -2.3979992,-1.349127 -0.9592,-0.856589 -1.4387999,-2.055812 -0.4796,-1.199224 -0.4796,-2.63401 0,-1.070735 0.16786,-2.098642 0.19184,-1.027906 0.4076599,-2.034397 0.2398001,-1.006492 0.40766,-2.012983 0.19184,-1.027906 0.19184,-2.055812 z"
     id="text6"
     style="font-size:46.4099px;font-family:Carlito;-inkscape-font-specification:'Carlito, Normal';fill:#0000ff;stroke:#0000ff;stroke-width:0.101133"
     aria-label="{" />
  <path
     d="m 47.610499,15.454052 c 0,0.885141 0.271773,1.598965 0.81532,2.14147 0.52756,0.556783 1.302913,0.835175 2.32606,0.835175 v 2.248544 c -1.023147,0 -1.7985,0.271253 -2.32606,0.81376 -0.543547,0.556782 -0.81532,1.270605 -0.81532,2.14147 0,0.699547 0.06395,1.384818 0.19184,2.055813 0.111907,0.685271 0.247793,1.363403 0.40766,2.034397 0.14388,0.670995 0.279767,1.349127 0.40766,2.034398 0.111907,0.685271 0.16786,1.384818 0.16786,2.098642 0,0.956524 -0.159867,1.834527 -0.4796,2.634009 -0.319733,0.799483 -0.581985,2.085727 -1.4388,2.055813 -3.145619,-0.109822 -2.751636,-1.509052 -2.78168,-1.670348 0.671441,-0.685271 1.007161,-1.62038 1.007161,-2.805327 0,-0.770929 -0.05595,-1.513306 -0.167861,-2.22713 -0.111906,-0.713824 -0.231806,-1.413371 -0.3597,-2.098642 -0.127893,-0.685271 -0.247793,-1.363403 -0.359699,-2.034398 -0.111907,-0.656718 -0.167861,-1.327712 -0.167861,-2.012983 0,-0.513953 0.08793,-0.999352 0.26378,-1.456199 0.175853,-0.442571 0.415654,-0.849451 0.719401,-1.220639 0.303747,-0.356912 0.67144,-0.663856 1.103079,-0.920833 0.43164,-0.2427 0.895253,-0.428294 1.39084,-0.556782 -0.495587,-0.128489 -0.9592,-0.321221 -1.39084,-0.578197 C 45.6921,18.723364 45.324407,18.41642 45.02066,18.045232 44.716913,17.68832 44.477112,17.288579 44.301259,16.846008 c -0.175853,-0.442571 -0.26378,-0.920833 -0.26378,-1.434786 0,-0.685271 0.05595,-1.363403 0.167861,-2.034397 0.111906,-0.670995 0.231806,-1.349127 0.359699,-2.034398 0.127894,-0.685271 0.247794,-1.3848178 0.3597,-2.0986418 0.111907,-0.713824 0.167861,-1.456201 0.167861,-2.22713 0,-1.170671 -0.33572,-2.098641 -1.007161,-2.783912 C 43.398013,3.5331959 42.4548,3.1834222 41.2558,3.1834222 h -0.45562 c -0.175853,0 -0.375687,-0.057106 -0.5995,-0.171318 -0.223813,-0.128488 -0.33572,-0.335497 -0.33572,-0.621027 V 0.72073034 h 1.24696 c 1.278933,0 2.398,0.1641793 3.3572,0.49253786 0.943213,0.3140827 1.742546,0.7637917 2.397999,1.349127 0.639467,0.5710593 1.119067,1.25633 1.4388,2.055812 0.319733,0.799483 0.4796,1.677486 0.4796,2.63401 0,0.713824 -0.05595,1.413371 -0.16786,2.098642 -0.127893,0.6852708 -0.26378,1.3634028 -0.40766,2.0343978 -0.159867,0.670994 -0.295753,1.341988 -0.40766,2.012982 -0.127893,0.685271 -0.19184,1.370542 -0.19184,2.055813 z"
     id="path7"
     style="font-size:46.4099px;font-family:Carlito;-inkscape-font-specification:'Carlito, Normal';fill:#0000ff;stroke:#0000ff;stroke-width:0.101133"
     aria-label="{" />
  <path
     d="m 38.686252,33.910653 9.084315,9.539497 -2.316961,2.002922 -8.117171,-10.368577 -2.978375,3.75192 -0.278753,-8.872599 8.719417,1.520361 z"
     id="text7"
     style="font-size:22.9019px;font-family:Carlito;-inkscape-font-specification:'Carlito, Normal';fill:#00aa00;stroke:#00aa00;stroke-width:0.0570312"
     aria-label="➚" />
  <path
     id="rect10"
     style="fill:#00aa00;stroke:#00aa00"
     d="M 5.2313555,39.626499 H 10.046119 L 7.8200664,41.876616 5.2313555,44.626447 Z" />
  <path
     d="m 84.710592,4.5651461 v 5.0329993 q -2.338345,-2.2447652 -4.99764,-3.3553329 -2.63637,-1.1105687 -5.616613,-1.1105687 -5.868788,0 -8.986582,3.70977 -3.117793,3.6861402 -3.117793,10.6803552 0,6.970585 3.117793,10.680355 3.117794,3.686141 8.986582,3.686141 2.980243,0 5.616613,-1.110569 2.659295,-1.110568 4.99764,-3.355333 v 4.985742 q -2.430046,1.701295 -5.158114,2.551943 -2.705145,0.850647 -5.731239,0.850647 -7.771559,0 -12.241925,-4.891224 -4.470365,-4.914853 -4.470365,-13.397702 0,-8.506477 4.470365,-13.3977022 4.470366,-4.9148539 12.241925,-4.9148539 3.071943,0 5.777089,0.8506478 2.728069,0.8270186 5.112264,2.5046854 z m 7.152587,-2.7173474 h 21.641151 v 4.016948 H 96.494015 V 16.30881 h 16.299645 v 4.016949 H 96.494015 v 12.783345 h 17.422965 v 4.016948 H 91.863179 Z m 34.295731,3.922431 V 19.026158 h 5.82293 q 3.23243,0 4.99765,-1.724925 1.76522,-1.724925 1.76522,-4.914853 0,-3.1663004 -1.76522,-4.8912253 -1.76522,-1.724925 -4.99765,-1.724925 z m -4.63084,-3.922431 h 10.45377 q 5.75417,0 8.68857,2.6937176 2.95731,2.6700895 2.95731,7.8448637 0,5.222032 -2.95731,7.89212 -2.9344,2.670089 -8.68857,2.670089 h -5.82293 v 14.177463 h -4.63084 z"
     id="text1"
     style="font-size:47.6659px;line-height:125%;font-family:'Bitstream Vera Sans';letter-spacing:0px;word-spacing:0px;fill:#0000ff;stroke:#0000ff;stroke-width:2.3833px"
     aria-label="CEP" />
</svg>
