<?xml version="1.0" encoding="UTF-8" standalone="no"?>
<!-- Created with Inkscape (http://www.inkscape.org/) -->

<svg
   version="1.1"
   id="svg1"
   width="59.52"
   height="54.080002"
   viewBox="0 0 59.52 54.080002"
   xmlns="http://www.w3.org/2000/svg"
   xmlns:svg="http://www.w3.org/2000/svg">
  <defs
     id="defs1" />
  <rect
     style="fill:#0000ff;stroke:#0000ff"
     id="rect1"
     width="10.99932"
     height="1.8332207"
     x="17.017767"
     y="9.9218159" />
  <rect
     style="fill:#0000ff;stroke:#0000ff"
     id="rect2"
     width="2.2915268"
     height="31.426634"
     x="25.720428"
     y="12.745403" />
  <rect
     style="fill:#0000ff;stroke:#0000ff"
     id="rect3"
     width="2.2915268"
     height="31.426634"
     x="31.764208"
     y="12.714312" />
  <rect
     style="fill:#0000ff;stroke:#0000ff"
     id="rect4"
     width="10.99932"
     height="1.8332207"
     x="31.768179"
     y="9.8910656" />
  <path
     d="m 7.6602438,29.399278 q 0,-1.327712 -0.8153199,-2.141471 -0.79134,-0.835175 -2.3260598,-0.835175 v -2.248544 q 1.5347198,0 2.3260598,-0.813759 0.8153199,-0.835174 0.8153199,-2.141471 0,-1.049321 -0.19184,-2.055812 -0.1678599,-1.027906 -0.40766,-2.034398 -0.2158199,-1.006491 -0.4076599,-2.034398 -0.16786,-1.027906 -0.16786,-2.098642 0,-1.434785 0.4796,-2.634009 0.4795999,-1.1992239 1.4387999,-2.0558124 0.9831798,-0.8780032 2.3979992,-1.3491269 1.4388,-0.4925383 3.3572,-0.4925383 h 1.24696 V 8.134469 q 0,0.4282941 -0.33572,0.6210266 -0.33572,0.1713177 -0.5995,0.1713177 h -0.45562 q -1.7985,0 -2.829639,1.0493208 -1.00716,1.0279059 -1.00716,2.8053279 0,1.156394 0.16786,2.227129 0.167859,1.070736 0.3597,2.098642 0.19184,1.027907 0.359699,2.034398 0.167861,0.985077 0.167861,2.012983 0,0.77093 -0.26378,1.4562 -0.26378,0.663856 -0.719401,1.220638 -0.4556194,0.535368 -1.1030793,0.920833 -0.64746,0.36405 -1.3908399,0.556783 0.7433799,0.192732 1.3908399,0.578197 0.6474599,0.36405 1.1030793,0.920833 0.455621,0.535367 0.719401,1.199224 0.26378,0.663855 0.26378,1.434785 0,1.027906 -0.167861,2.034397 -0.167859,1.006492 -0.359699,2.034398 -0.191841,1.027906 -0.3597,2.098643 -0.16786,1.070735 -0.16786,2.227129 0,1.756006 1.00716,2.783912 1.031139,1.049321 2.829639,1.049321 h 0.45562 q 0.26378,0 0.5995,0.171318 0.33572,0.192733 0.33572,0.621027 v 1.670347 h -1.24696 q -1.9184,0 -3.3572,-0.492538 -1.4148194,-0.471124 -2.3979992,-1.349127 -0.9592,-0.856589 -1.4387999,-2.055812 -0.4796,-1.199224 -0.4796,-2.63401 0,-1.070735 0.16786,-2.098642 0.19184,-1.027906 0.4076599,-2.034397 0.2398001,-1.006492 0.40766,-2.012983 0.19184,-1.027906 0.19184,-2.055812 z"
     id="text6"
     style="font-size:46.4099px;font-family:Carlito;-inkscape-font-specification:'Carlito, Normal';fill:#0000ff;stroke:#0000ff;stroke-width:0.101133"
     aria-label="{" />
  <path
     d="m 52.078797,21.290035 c 0,0.885141 0.271773,1.598965 0.81532,2.14147 0.52756,0.556783 1.302913,0.835175 2.32606,0.835175 v 2.248544 c -1.023147,0 -1.7985,0.271253 -2.32606,0.81376 -0.543547,0.556782 -0.81532,1.270605 -0.81532,2.14147 0,0.699547 0.06395,1.384818 0.19184,2.055813 0.111907,0.685271 0.247793,1.363403 0.40766,2.034397 0.14388,0.670995 0.279767,1.349127 0.40766,2.034398 0.111907,0.685271 0.16786,1.384818 0.16786,2.098642 0,0.956524 -0.159867,1.834527 -0.4796,2.634009 -0.319733,0.799483 -0.581985,2.085727 -1.4388,2.055813 -3.145619,-0.109822 -2.751636,-1.509052 -2.78168,-1.670348 0.671441,-0.685271 1.007161,-1.62038 1.007161,-2.805327 0,-0.770929 -0.05595,-1.513306 -0.167861,-2.22713 -0.111906,-0.713824 -0.231806,-1.413371 -0.3597,-2.098642 -0.127893,-0.685271 -0.247793,-1.363403 -0.359699,-2.034398 -0.111907,-0.656718 -0.167861,-1.327712 -0.167861,-2.012983 0,-0.513953 0.08793,-0.999352 0.26378,-1.456199 0.175853,-0.442571 0.415654,-0.849451 0.719401,-1.220639 0.303747,-0.356912 0.67144,-0.663856 1.103079,-0.920833 0.43164,-0.2427 0.895253,-0.428294 1.39084,-0.556782 -0.495587,-0.128489 -0.9592,-0.321221 -1.39084,-0.578197 -0.431639,-0.242701 -0.799332,-0.549645 -1.103079,-0.920833 -0.303747,-0.356912 -0.543548,-0.756653 -0.719401,-1.199224 -0.175853,-0.442571 -0.26378,-0.920833 -0.26378,-1.434786 0,-0.685271 0.05595,-1.363403 0.167861,-2.034397 0.111906,-0.670995 0.231806,-1.349127 0.359699,-2.034398 0.127894,-0.685271 0.247794,-1.384818 0.3597,-2.098642 0.111907,-0.713824 0.167861,-1.456201 0.167861,-2.22713 0,-1.170671 -0.33572,-2.098641 -1.007161,-2.783912 C 47.866311,9.3691787 46.923098,9.019405 45.724098,9.019405 h -0.45562 c -0.175853,0 -0.375687,-0.057106 -0.5995,-0.171318 C 44.445165,8.719599 44.333258,8.51259 44.333258,8.22706 V 6.5567131 h 1.24696 c 1.278933,0 2.398,0.1641793 3.3572,0.4925379 0.943213,0.3140827 1.742546,0.7637917 2.397999,1.349127 0.639467,0.5710593 1.119067,1.25633 1.4388,2.055812 0.319733,0.799483 0.4796,1.677486 0.4796,2.63401 0,0.713824 -0.05595,1.413371 -0.16786,2.098642 -0.127893,0.685271 -0.26378,1.363403 -0.40766,2.034398 -0.159867,0.670994 -0.295753,1.341988 -0.40766,2.012982 -0.127893,0.685271 -0.19184,1.370542 -0.19184,2.055813 z"
     id="path7"
     style="font-size:46.4099px;font-family:Carlito;-inkscape-font-specification:'Carlito, Normal';fill:#0000ff;stroke:#0000ff;stroke-width:0.101133"
     aria-label="{" />
  <path
     d="m 43.15455,39.746636 9.084315,9.539497 -2.316961,2.002922 -8.117171,-10.368577 -2.978375,3.75192 -0.278753,-8.872599 8.719417,1.520361 z"
     id="text7"
     style="font-size:22.9019px;font-family:Carlito;-inkscape-font-specification:'Carlito, Normal';fill:#00aa00;stroke:#00aa00;stroke-width:0.0570312"
     aria-label="➚" />
  <path
     id="rect10"
     style="fill:#00aa00;stroke:#00aa00"
     d="M 9.6996531,45.462482 H 14.514417 L 12.288364,47.712599 9.6996531,50.46243 Z" />
</svg>
